<?xml version="1.0" standalone="no"?>
<!DOCTYPE svg PUBLIC "-//W3C//DTD SVG 20010904//EN"
 "http://www.w3.org/TR/2001/REC-SVG-20010904/DTD/svg10.dtd">
<svg version="1.0" xmlns="http://www.w3.org/2000/svg"
 width="512.000000pt" height="512.000000pt" viewBox="0 0 512.000000 512.000000"
 preserveAspectRatio="xMidYMid meet">

<g transform="translate(0.000000,512.000000) scale(0.100000,-0.100000)"
fill="#000000" stroke="none">
<path d="M1405 4224 c-168 -30 -321 -135 -393 -271 -69 -131 -75 -174 -80
-605 l-4 -388 101 0 101 0 0 270 0 270 675 0 675 0 0 370 0 370 -497 -1 c-381
-1 -517 -4 -578 -15z m875 -354 l0 -170 -569 0 -569 0 13 68 c25 129 69 194
155 231 80 34 139 38 568 40 l402 1 0 -170z"/>
<path d="M3115 4224 c-168 -30 -321 -135 -393 -271 -69 -131 -75 -174 -80
-605 l-4 -388 101 0 101 0 0 270 0 270 675 0 675 0 0 370 0 370 -497 -1 c-381
-1 -517 -4 -578 -15z m875 -354 l0 -170 -569 0 -569 0 13 68 c25 129 69 194
155 231 80 34 139 38 568 40 l402 1 0 -170z"/>
<path d="M1510 2834 c0 -4 8 -16 17 -26 9 -11 17 -31 18 -46 0 -17 5 -27 15
-27 8 0 14 7 12 15 -2 8 -4 30 -6 50 -2 30 -6 35 -29 38 -15 2 -27 0 -27 -4z"/>
<path d="M2107 2702 c3 -12 15 -22 27 -24 l21 -3 0 -365 0 -365 -21 -3 c-12
-2 -24 -12 -27 -24 -6 -20 -3 -20 171 -16 169 3 180 5 234 31 71 35 139 109
170 185 20 50 23 74 23 192 -1 116 -4 143 -23 192 -30 75 -99 150 -170 185
-55 27 -64 28 -234 31 -174 4 -177 4 -171 -16z m300 -42 c76 -46 141 -191 150
-333 5 -77 3 -97 -21 -170 -30 -91 -80 -167 -129 -197 -41 -26 -83 -26 -97 -1
-6 13 -10 142 -10 351 0 209 4 338 10 351 14 25 56 25 97 -1z"/>
<path d="M2754 2704 c3 -9 6 -18 6 -20 0 -2 7 -4 15 -4 31 0 35 -38 35 -370 0
-329 -4 -370 -34 -370 -12 0 -26 -20 -26 -36 0 -2 128 -4 285 -4 l285 0 -12
25 c-10 21 -8 32 11 65 25 45 22 89 -11 136 -19 28 -20 28 -15 4 10 -46 -6
-92 -38 -110 -17 -9 -37 -30 -45 -48 l-15 -32 -117 0 -118 0 0 225 0 225 88 0
c111 0 119 -5 105 -64 -9 -40 -8 -45 4 -34 22 18 43 64 43 93 0 14 -9 44 -21
67 -15 29 -19 52 -16 77 l6 36 -20 -24 c-14 -18 -19 -36 -17 -65 l3 -41 -88
-3 -88 -3 3 123 3 123 103 3 c91 2 103 1 109 -15 8 -25 44 -63 59 -63 23 0 36
-30 36 -80 0 -45 2 -49 14 -33 8 10 19 35 24 56 10 33 8 45 -11 83 -17 37 -19
50 -10 70 l11 24 -276 0 c-248 0 -276 -2 -270 -16z"/>
<path d="M3382 2703 c2 -10 16 -20 33 -23 93 -19 105 -49 150 -375 41 -303 47
-325 85 -368 l28 -32 120 0 c180 0 177 -6 233 389 48 331 62 370 141 382 28 5
38 11 38 25 0 16 -8 19 -57 19 -76 0 -115 -24 -137 -82 -10 -24 -36 -177 -60
-340 -29 -201 -48 -305 -60 -322 -30 -46 -99 -31 -119 27 -4 9 -25 149 -47
310 -26 186 -48 307 -60 335 -26 59 -62 72 -190 72 -90 0 -101 -2 -98 -17z"/>
<path d="M1482 2593 c3 -24 8 -28 40 -31 21 -2 49 4 65 13 15 9 20 14 10 11
-10 -3 -38 3 -62 14 -56 25 -57 25 -53 -7z"/>
<path d="M1210 2350 l0 -180 221 0 221 0 20 25 c11 14 26 25 34 25 8 0 19 11
25 24 10 22 47 42 58 31 2 -3 4 -18 3 -35 0 -16 4 -32 9 -35 5 -4 9 60 9 159
l0 166 -85 0 c-50 0 -85 -4 -85 -10 0 -5 4 -10 10 -10 5 0 7 -6 4 -14 -4 -9 3
-16 18 -19 l23 -4 -24 -2 c-14 0 -21 -6 -18 -13 16 -43 17 -58 7 -58 -7 0 -14
9 -17 20 -3 11 -9 20 -14 20 -5 0 -6 7 -3 15 5 12 -2 15 -30 15 -42 0 -48 -17
-8 -23 20 -3 18 -4 -13 -6 -30 -1 -36 -4 -27 -13 16 -16 15 -28 -3 -28 -8 0
-15 5 -15 10 0 6 -15 11 -32 11 l-33 2 35 7 c19 4 31 8 26 9 -5 0 -3 7 3 15 9
11 9 15 -1 19 -10 4 -10 6 0 6 21 2 13 19 -10 24 -20 4 -19 4 5 6 15 0 27 6
27 11 0 6 -63 10 -170 10 l-170 0 0 -180z m88 153 c-10 -2 -26 -2 -35 0 -10 3
-2 5 17 5 19 0 27 -2 18 -5z m65 0 c-7 -2 -19 -2 -25 0 -7 3 -2 5 12 5 14 0
19 -2 13 -5z m75 0 c-10 -2 -26 -2 -35 0 -10 3 -2 5 17 5 19 0 27 -2 18 -5z
m-161 -29 c-3 -3 -12 -4 -19 -1 -8 3 -5 6 6 6 11 1 17 -2 13 -5z m86 -1 c-7
-2 -19 -2 -25 0 -7 3 -2 5 12 5 14 0 19 -2 13 -5z m125 0 c-16 -2 -40 -2 -55
0 -16 2 -3 4 27 4 30 0 43 -2 28 -4z m279 1 c-3 -3 -12 -4 -19 -1 -8 3 -5 6 6
6 11 1 17 -2 13 -5z m-484 -31 c-7 -2 -19 -2 -25 0 -7 3 -2 5 12 5 14 0 19 -2
13 -5z m90 0 c-7 -2 -19 -2 -25 0 -7 3 -2 5 12 5 14 0 19 -2 13 -5z m44 1 c-3
-3 -12 -4 -19 -1 -8 3 -5 6 6 6 11 1 17 -2 13 -5z m71 -1 c-10 -2 -28 -2 -40
0 -13 2 -5 4 17 4 22 1 32 -1 23 -4z m-180 -20 c-10 -2 -28 -2 -40 0 -13 2 -5
4 17 4 22 1 32 -1 23 -4z m65 0 c-7 -2 -21 -2 -30 0 -10 3 -4 5 12 5 17 0 24
-2 18 -5z m80 0 c-7 -2 -19 -2 -25 0 -7 3 -2 5 12 5 14 0 19 -2 13 -5z m-170
-30 c-7 -2 -19 -2 -25 0 -7 3 -2 5 12 5 14 0 19 -2 13 -5z m74 1 c-3 -3 -12
-4 -19 -1 -8 3 -5 6 6 6 11 1 17 -2 13 -5z m-34 -21 c-7 -2 -21 -2 -30 0 -10
3 -4 5 12 5 17 0 24 -2 18 -5z m65 0 c-10 -2 -26 -2 -35 0 -10 3 -2 5 17 5 19
0 27 -2 18 -5z m-95 -30 c-7 -2 -21 -2 -30 0 -10 3 -4 5 12 5 17 0 24 -2 18
-5z m74 1 c-3 -3 -12 -4 -19 -1 -8 3 -5 6 6 6 11 1 17 -2 13 -5z m-90 -30 c-3
-3 -12 -4 -19 -1 -8 3 -5 6 6 6 11 1 17 -2 13 -5z m56 -1 c-7 -2 -21 -2 -30 0
-10 3 -4 5 12 5 17 0 24 -2 18 -5z m50 0 c-7 -2 -19 -2 -25 0 -7 3 -2 5 12 5
14 0 19 -2 13 -5z m44 1 c-3 -3 -12 -4 -19 -1 -8 3 -5 6 6 6 11 1 17 -2 13 -5z
m-129 -21 c-10 -2 -26 -2 -35 0 -10 3 -2 5 17 5 19 0 27 -2 18 -5z m49 1 c-3
-3 -12 -4 -19 -1 -8 3 -5 6 6 6 11 1 17 -2 13 -5z m-70 -30 c-3 -3 -12 -4 -19
-1 -8 3 -5 6 6 6 11 1 17 -2 13 -5z m56 -1 c-7 -2 -21 -2 -30 0 -10 3 -4 5 12
5 17 0 24 -2 18 -5z m80 0 c-7 -2 -19 -2 -25 0 -7 3 -2 5 12 5 14 0 19 -2 13
-5z m95 0 c-16 -2 -40 -2 -55 0 -16 2 -3 4 27 4 30 0 43 -2 28 -4z m-121 -19
c-3 -3 -12 -4 -19 -1 -8 3 -5 6 6 6 11 1 17 -2 13 -5z m46 -1 c-7 -2 -19 -2
-25 0 -7 3 -2 5 12 5 14 0 19 -2 13 -5z"/>
<path d="M1590 2520 c0 -5 5 -10 10 -10 6 0 10 5 10 10 0 6 -4 10 -10 10 -5 0
-10 -4 -10 -10z"/>
<path d="M1575 2490 c-4 -6 5 -10 19 -10 14 0 26 5 26 10 0 6 -9 10 -19 10
-11 0 -23 -4 -26 -10z"/>
<path d="M1109 2198 c-8 -27 -4 -47 10 -63 11 -11 22 -43 26 -72 6 -45 4 -52
-12 -56 -11 -3 -8 -5 11 -6 25 -1 28 2 22 22 -4 12 -10 40 -13 62 -4 22 -15
47 -27 56 -35 29 -9 33 41 7 31 -17 49 -33 51 -47 2 -12 9 -20 15 -18 7 3 11
10 9 16 -1 6 5 14 13 18 13 4 12 8 -7 22 -52 36 -135 71 -139 59z"/>
<path d="M1977 2169 c-9 -6 -15 -13 -13 -17 2 -4 -10 -7 -27 -7 -29 0 -32 -3
-34 -32 -4 -55 -7 -72 -11 -68 -3 2 -11 -2 -19 -10 -9 -9 -34 -15 -67 -15 -45
0 -56 4 -81 30 -21 22 -26 33 -18 38 7 4 -7 9 -31 10 -37 1 -45 -2 -55 -24
-14 -32 -14 -34 5 -34 11 0 14 -6 9 -20 -4 -13 -2 -20 7 -20 8 0 21 -9 31 -20
9 -11 23 -20 31 -20 8 0 16 -6 19 -14 8 -20 44 -9 50 14 4 16 9 18 33 8 48
-17 100 10 113 60 8 30 19 43 41 52 21 9 30 19 30 36 0 12 5 26 10 29 12 7 14
35 3 35 -5 0 -16 -5 -26 -11z m-27 -62 c0 -2 -12 -14 -27 -28 l-28 -24 24 28
c23 25 31 32 31 24z"/>
<path d="M1338 2123 c7 -3 16 -2 19 1 4 3 -2 6 -13 5 -11 0 -14 -3 -6 -6z"/>
<path d="M1428 2123 c7 -3 16 -2 19 1 4 3 -2 6 -13 5 -11 0 -14 -3 -6 -6z"/>
<path d="M1518 2123 c7 -3 16 -2 19 1 4 3 -2 6 -13 5 -11 0 -14 -3 -6 -6z"/>
<path d="M1197 2104 c-4 -4 -7 -29 -7 -56 0 -34 4 -48 14 -48 10 0 12 12 9 48
-6 61 -7 65 -16 56z"/>
<path d="M1270 2090 c0 -5 5 -10 10 -10 6 0 10 5 10 10 0 6 -4 10 -10 10 -5 0
-10 -4 -10 -10z"/>
<path d="M1310 2090 c0 -5 7 -10 15 -10 8 0 15 5 15 10 0 6 -7 10 -15 10 -8 0
-15 -4 -15 -10z"/>
<path d="M1360 2090 c0 -5 5 -10 10 -10 6 0 10 5 10 10 0 6 -4 10 -10 10 -5 0
-10 -4 -10 -10z"/>
<path d="M1405 2090 c-3 -5 1 -10 9 -10 9 0 16 5 16 10 0 6 -4 10 -9 10 -6 0
-13 -4 -16 -10z"/>
<path d="M1450 2090 c0 -5 4 -10 9 -10 6 0 13 5 16 10 3 6 -1 10 -9 10 -9 0
-16 -4 -16 -10z"/>
<path d="M1500 2090 c0 -5 5 -10 10 -10 6 0 10 5 10 10 0 6 -4 10 -10 10 -5 0
-10 -4 -10 -10z"/>
<path d="M1540 2090 c0 -5 7 -10 15 -10 8 0 15 5 15 10 0 6 -7 10 -15 10 -8 0
-15 -4 -15 -10z"/>
<path d="M1590 2090 c0 -5 5 -10 10 -10 6 0 10 5 10 10 0 6 -4 10 -10 10 -5 0
-10 -4 -10 -10z"/>
<path d="M1230 2050 c0 -5 5 -10 10 -10 6 0 10 5 10 10 0 6 -4 10 -10 10 -5 0
-10 -4 -10 -10z"/>
<path d="M1275 2050 c-3 -5 1 -10 9 -10 9 0 16 5 16 10 0 6 -4 10 -9 10 -6 0
-13 -4 -16 -10z"/>
<path d="M1320 2050 c0 -5 7 -10 15 -10 8 0 15 5 15 10 0 6 -7 10 -15 10 -8 0
-15 -4 -15 -10z"/>
<path d="M1370 2050 c0 -5 4 -10 9 -10 6 0 13 5 16 10 3 6 -1 10 -9 10 -9 0
-16 -4 -16 -10z"/>
<path d="M1420 2050 c0 -5 5 -10 10 -10 6 0 10 5 10 10 0 6 -4 10 -10 10 -5 0
-10 -4 -10 -10z"/>
<path d="M1460 2050 c0 -5 7 -10 15 -10 8 0 15 5 15 10 0 6 -7 10 -15 10 -8 0
-15 -4 -15 -10z"/>
<path d="M1510 2050 c0 -5 7 -10 15 -10 8 0 15 5 15 10 0 6 -7 10 -15 10 -8 0
-15 -4 -15 -10z"/>
<path d="M1560 2050 c0 -5 5 -10 10 -10 6 0 10 5 10 10 0 6 -4 10 -10 10 -5 0
-10 -4 -10 -10z"/>
<path d="M1270 2010 c0 -5 5 -10 10 -10 6 0 10 5 10 10 0 6 -4 10 -10 10 -5 0
-10 -4 -10 -10z"/>
<path d="M1320 2010 c0 -6 45 -10 115 -10 70 0 115 4 115 10 0 6 -45 10 -115
10 -70 0 -115 -4 -115 -10z"/>
<path d="M1580 2010 c0 -5 5 -10 10 -10 6 0 10 5 10 10 0 6 -4 10 -10 10 -5 0
-10 -4 -10 -10z"/>
<path d="M1130 1986 c0 -2 9 -6 20 -9 11 -3 18 -1 14 4 -5 9 -34 13 -34 5z"/>
<path d="M1208 1982 c-23 -4 -23 -26 -1 -63 23 -39 30 -37 25 9 -5 56 -6 58
-24 54z"/>
<path d="M862 1519 c3 -9 28 -16 69 -20 35 -3 80 -14 99 -24 19 -10 123 -105
231 -211 178 -174 201 -194 249 -208 44 -13 109 -16 347 -16 195 0 293 3 293
10 0 6 -7 13 -15 16 -22 9 -22 429 0 438 37 14 10 26 -60 26 -57 0 -75 -3 -75
-14 0 -8 7 -16 15 -20 13 -4 15 -38 15 -216 l0 -210 -30 0 c-17 0 -45 7 -63
16 -17 9 -119 102 -225 206 -106 103 -212 198 -235 210 -33 17 -64 23 -145 26
-91 4 -102 3 -96 -12 4 -11 19 -16 45 -16 22 0 58 -9 81 -21 22 -11 126 -102
230 -202 105 -100 200 -187 211 -194 19 -10 7 -12 -74 -13 -81 0 -102 3 -137
23 -23 12 -128 106 -234 208 -106 102 -209 194 -228 205 -46 24 -275 35 -268
13z"/>
<path d="M2210 1520 c0 -6 7 -13 15 -16 13 -5 15 -39 15 -219 0 -180 -2 -214
-15 -219 -8 -3 -15 -10 -15 -16 0 -6 60 -10 171 -10 122 0 168 3 163 11 -3 6
-1 28 6 49 9 27 9 43 1 56 -8 16 -10 16 -11 3 0 -9 -16 -32 -35 -52 -35 -36
-39 -37 -105 -37 l-70 0 0 130 0 131 63 -3 62 -3 -3 -30 -2 -30 16 29 c14 25
15 34 3 70 -8 23 -12 47 -11 55 2 7 -1 10 -7 6 -6 -3 -11 -19 -11 -36 0 -29
-1 -29 -55 -29 l-56 0 3 68 3 67 68 3 c55 2 67 0 67 -13 0 -8 11 -21 25 -27
23 -10 29 -22 28 -57 -1 -9 2 -10 9 -3 10 10 11 27 6 100 l-3 32 -162 0 c-105
0 -163 -4 -163 -10z"/>
<path d="M2630 1520 c0 -6 7 -13 15 -16 13 -5 15 -39 15 -219 0 -180 -2 -214
-15 -219 -8 -3 -15 -10 -15 -16 0 -6 60 -10 171 -10 122 0 168 3 163 11 -3 6
-1 28 6 49 9 27 9 43 1 56 -8 16 -10 16 -11 3 0 -9 -16 -32 -35 -52 -35 -36
-39 -37 -105 -37 l-70 0 0 130 0 131 63 -3 62 -3 -3 -30 -2 -30 16 29 c14 25
15 34 3 70 -8 23 -12 47 -11 55 2 7 -1 10 -7 6 -6 -3 -11 -19 -11 -36 0 -29
-1 -29 -55 -29 l-56 0 3 68 3 67 68 3 c55 2 67 0 67 -13 0 -8 11 -21 25 -27
23 -10 29 -22 28 -57 -1 -9 2 -10 9 -3 10 10 11 27 6 100 l-3 32 -162 0 c-105
0 -163 -4 -163 -10z"/>
<path d="M3046 1516 c3 -8 12 -17 20 -20 11 -4 14 -42 14 -208 0 -199 -1 -204
-22 -223 l-23 -20 43 -3 c23 -2 61 -2 85 0 l42 3 -22 20 c-21 18 -23 28 -23
135 0 179 27 187 96 29 23 -53 59 -113 81 -138 38 -43 42 -45 106 -49 57 -4
67 -2 67 12 0 10 -9 16 -24 16 -31 0 -71 46 -123 141 -49 88 -93 139 -122 139
-20 0 -20 0 2 23 12 13 41 47 65 75 34 41 49 52 73 52 20 0 29 5 29 16 0 14
-9 16 -62 11 -74 -7 -103 -26 -143 -95 -16 -28 -33 -51 -37 -52 -5 0 -8 25 -8
55 0 39 4 57 14 61 8 3 17 12 20 20 4 11 -9 14 -74 14 -65 0 -78 -3 -74 -14z"/>
<path d="M3560 1520 c0 -6 7 -13 15 -16 13 -5 15 -39 15 -219 0 -180 -2 -214
-15 -219 -8 -3 -15 -10 -15 -16 0 -6 57 -10 160 -10 179 0 189 5 129 61 -21
20 -32 40 -33 59 -1 37 -13 39 -22 5 -6 -25 -4 -42 11 -78 7 -16 2 -18 -56
-15 l-64 3 -3 208 c-2 178 0 208 13 213 8 4 15 12 15 20 0 11 -18 14 -75 14
-45 0 -75 -4 -75 -10z"/>
<path d="M3792 1518 c3 -7 18 -16 34 -20 38 -9 50 -23 108 -118 l46 -74 0
-118 c0 -98 -3 -118 -15 -118 -8 0 -15 -7 -15 -15 0 -12 15 -15 75 -15 60 0
75 3 75 15 0 8 -7 15 -15 15 -13 0 -15 20 -15 123 l0 123 58 85 c44 65 64 86
90 94 49 14 42 39 -9 32 -50 -7 -70 -24 -119 -105 l-38 -63 -36 60 c-56 92
-84 111 -163 111 -46 0 -64 -3 -61 -12z"/>
</g>
</svg>
